External Loads File
version=1
nRows=53
nColumns=13
Range=5.000000e-03-10 seconds
endheader
time 	forceRightX 	forceRightY 	forceRightZ 	pointRightX 	pointRightY 	pointRightZ 	forceLeftX 	forceLeftY 	forceLeftZ 	pointLeftX 	pointLeftY 	pointLeftZ 		
2.505000 -18.501522 831.014207 -0.000000 0.418545 0.206320 -0.107204 -14.912331 -111.170699 -0.000000 0.196805 0.408644 -0.354369
2.510000 11.782535 828.933039 -0.000000 0.412437 0.197861 -0.106997 -24.364819 -114.243256 -0.000000 0.204231 0.417746 -0.353750
2.515000 36.400729 823.858830 -0.000000 0.405875 0.189790 -0.106756 -32.778367 -116.538331 -0.000000 0.209986 0.426349 -0.353606
2.520000 62.120401 815.587930 -0.000000 0.398822 0.182328 -0.106504 -41.203088 -117.802108 -0.000000 0.217484 0.434647 -0.352953
2.525000 84.002809 804.216262 -0.000000 0.391515 0.175310 -0.106232 -49.129841 -118.113131 -0.000000 0.224735 0.442278 -0.352493
2.530000 104.654590 789.354630 -0.000000 0.383804 0.168815 -0.106034 -57.135481 -117.138879 -0.000000 0.232802 0.449176 -0.352245
2.535000 122.734913 770.978597 -0.000000 0.375776 0.162957 -0.105857 -65.160784 -114.735667 -0.000000 0.240983 0.455570 -0.352162
2.540000 138.788472 749.005533 -0.000000 0.367429 0.157545 -0.105673 -73.311675 -110.616038 -0.000000 0.249352 0.461410 -0.352115
2.545000 153.115536 723.583594 -0.000000 0.358736 0.152992 -0.105469 -81.542105 -104.422990 -0.000000 0.258104 0.466489 -0.352268
2.550000 166.116416 695.103201 -0.000000 0.349723 0.148936 -0.105298 -89.693930 -95.718173 -0.000000 0.267137 0.470945 -0.352336
2.555000 177.782494 664.346328 -0.000000 0.340293 0.145645 -0.105146 -97.390488 -84.157380 -0.000000 0.276316 0.474670 -0.352709
2.560000 188.323633 632.262987 -0.000000 0.330520 0.142944 -0.104991 -104.126808 -69.509534 -0.000000 0.285622 0.477845 -0.353074
2.565000 197.575217 599.883045 -0.000000 0.320469 0.141210 -0.104979 -109.257706 -51.738764 -0.000000 0.294939 0.480510 -0.353427
2.570000 205.600363 567.858950 -0.000000 0.310101 0.139589 -0.104812 -112.190949 -30.876544 -0.000000 0.304031 0.482534 -0.353781
2.575000 211.952834 536.504050 -0.000000 0.299869 0.138846 -0.105007 -112.504821 -7.103430 -0.000000 0.312895 0.484047 -0.354103
2.580000 216.902811 505.275498 -0.000000 0.289508 0.138615 -0.104999 -110.157167 19.583451 -0.000000 0.321146 0.485022 -0.354121
2.585000 221.185754 472.840169 -0.000000 0.279205 0.139276 -0.104736 -105.392481 49.409753 -0.000000 0.329118 0.484897 -0.354518
2.590000 224.061021 438.122444 -0.000000 0.269198 0.140538 -0.104744 -98.903102 82.379760 -0.000000 0.336562 0.484816 -0.354806
2.595000 225.860955 399.373027 -0.000000 0.259419 0.142691 -0.104789 -91.662092 118.804250 -0.000000 0.343460 0.484087 -0.355058
2.600000 226.352780 355.140315 -0.000000 0.249970 0.145489 -0.104821 -84.878274 158.855495 -0.000000 0.349928 0.482735 -0.355425
2.605000 225.166376 304.405912 -0.000000 0.241090 0.148864 -0.104878 -79.741829 202.459927 -0.000000 0.356134 0.480239 -0.355918
2.610000 221.690762 246.952707 -0.000000 0.232648 0.152934 -0.105057 -77.250184 249.032654 -0.000000 0.362202 0.477210 -0.356397
2.615000 215.059716 183.678724 -0.000000 0.224966 0.157621 -0.105083 -78.262144 297.335890 -0.000000 0.368264 0.473365 -0.356798
2.620000 204.706914 116.307164 -0.000000 0.217892 0.162725 -0.105017 -83.133877 345.723911 -0.000000 0.374325 0.468512 -0.357301
2.625000 190.301911 47.335089 -0.000000 0.211223 0.168204 -0.105286 -91.711621 392.441182 -0.000000 0.380593 0.462890 -0.357759
2.630000 171.795666 -19.988752 -0.000000 0.205102 0.174350 -0.105228 -103.926909 435.861475 -0.000000 0.386769 0.456482 -0.358315
2.635000 149.708914 -82.412437 -0.000000 0.199422 0.180602 -0.105103 -119.277216 474.921711 -0.000000 0.393050 0.449285 -0.358816
2.640000 125.028494 -136.926217 -0.000000 0.194228 0.187278 -0.105001 -137.142744 509.192633 -0.000000 0.399230 0.441426 -0.359428
2.645000 98.956672 -181.284395 -0.000000 0.189393 0.194401 -0.105044 -156.192337 538.953356 -0.000000 0.405447 0.432923 -0.360136
2.650000 73.129554 -213.984198 -0.000000 0.184818 0.201900 -0.105099 -175.756893 564.604905 -0.000000 0.411351 0.423877 -0.360784
2.655000 48.958483 -234.714542 -0.000000 0.180569 0.209945 -0.105227 -194.410133 586.915796 -0.000000 0.417195 0.414427 -0.361378
2.660000 28.207151 -243.998057 -0.000000 0.176533 0.218234 -0.105383 -212.364983 606.222903 -0.000000 0.422583 0.404881 -0.361706
2.665000 11.533557 -243.334097 -0.000000 0.172952 0.227001 -0.105579 -228.436104 623.428980 -0.000000 0.427758 0.395106 -0.361804
2.670000 -0.903858 -234.741678 -0.000000 0.169699 0.236151 -0.105789 -241.844716 639.441699 -0.000000 0.432664 0.384851 -0.361885
2.675000 -8.814675 -220.583496 -0.000000 0.167048 0.245399 -0.105878 -253.863888 654.428414 -0.000000 0.437046 0.374355 -0.361890
2.680000 -13.305486 -203.279199 -0.000000 0.164740 0.255067 -0.106104 -263.317349 669.429057 -0.000000 0.440962 0.363537 -0.361917
2.685000 -14.993254 -185.003002 -0.000000 0.163403 0.264917 -0.105865 -271.455454 684.462255 -0.000000 0.444444 0.352631 -0.361785
2.690000 -15.258264 -167.321617 -0.000000 0.162372 0.275022 -0.105899 -277.556889 700.240807 -0.000000 0.447455 0.341662 -0.361501
2.695000 -15.087952 -151.111447 -0.000000 0.161891 0.285246 -0.106126 -281.884964 717.026189 -0.000000 0.449856 0.330591 -0.361204
2.700000 -15.456090 -136.612793 -0.000000 0.162001 0.295734 -0.106355 -283.364335 735.478504 -0.000000 0.451633 0.319265 -0.361134
2.705000 -16.684479 -123.704615 -0.000000 0.162788 0.306318 -0.106614 -282.067884 755.555888 -0.000000 0.452807 0.307762 -0.361177
2.710000 -18.807305 -112.115005 -0.000000 0.164011 0.317009 -0.106935 -277.976387 776.967306 -0.000000 0.453260 0.296294 -0.361293
2.715000 -21.733086 -101.597933 -0.000000 0.165846 0.327797 -0.107075 -270.527379 799.371647 -0.000000 0.453133 0.284828 -0.361935
2.720000 -25.178166 -92.059487 -0.000000 0.167970 0.338616 -0.107554 -260.042616 821.935149 -0.000000 0.452105 0.273599 -0.361735
2.725000 -28.986458 -83.531784 -0.000000 0.170802 0.349354 -0.108181 -246.260314 843.918639 -0.000000 0.450370 0.262583 -0.361811
2.730000 -33.141802 -76.120584 -0.000000 0.174164 0.360186 -0.108764 -228.271896 864.673339 -0.000000 0.447906 0.251680 -0.361928
2.735000 -37.696249 -69.941377 -0.000000 0.178140 0.371247 -0.109306 -205.118672 883.368881 -0.000000 0.444785 0.240712 -0.362210
2.740000 -42.443856 -65.242706 -0.000000 0.182471 0.381688 -0.109952 -180.242522 898.015399 -0.000000 0.441136 0.229928 -0.362423
2.745000 -47.533465 -62.029485 -0.000000 0.187608 0.392006 -0.110166 -153.362044 907.624282 -0.000000 0.436878 0.219966 -0.362357
2.750000 -53.000720 -60.214020 -0.000000 0.193071 0.402066 -0.110892 -124.716913 911.235238 -0.000000 0.431945 0.210469 -0.362121
2.755000 -58.817416 -59.628374 -0.000000 0.199160 0.411602 -0.111412 -94.529516 908.175343 -0.000000 0.426423 0.201229 -0.361945
2.760000 -64.869776 -60.116429 -0.000000 0.205642 0.420823 -0.112012 -64.167494 898.001729 -0.000000 0.420483 0.192509 -0.361896
2.765000 -71.080523 -61.412193 -0.000000 0.212533 0.429509 -0.112486 -34.408309 880.775215 -0.000000 0.414048 0.184301 -0.361783
